<?xml version="1.0" encoding="utf-8"?>
<!-- Generator: Adobe Illustrator 19.0.0, SVG Export Plug-In . SVG Version: 6.00 Build 0)  -->
<svg version="1.1" id="_x35_9725d3d-bdd8-4af0-9b66-49b8d09410bc"
	 xmlns="http://www.w3.org/2000/svg" xmlns:xlink="http://www.w3.org/1999/xlink" x="0px" y="0px"
	 viewBox="471 -227.2 1041.3 554.2" style="enable-background:new 471 -227.2 1041.3 554.2;" xml:space="preserve">
<style type="text/css">
	.st{opacity: 0.3}
	.st0{opacity:0.1;fill:#F6F6F6;enable-background:new    ;}
	.st1{opacity:0.1;}
	.st2{fill:#F6F6F6;}
	.st3{fill:#3F3D56;}
	.st4{fill:#65617D;}
	.st5{opacity:0.2;enable-background:new    ;}
	.st6{opacity:0.1;enable-background:new    ;}
	.st7{fill:#D4DFEC;}
	.st8{fill:#FBBEBE;}
	.st9{fill:url(#SVGID_1_);}
	.st10{fill:none;stroke:#F6F6F6;stroke-width:2;stroke-miterlimit:10;}
	.st11{fill:none;stroke:#D4DFEC;stroke-miterlimit:10;}
	.st12{fill:none;stroke:#D4DFEC;stroke-width:1.172;stroke-miterlimit:10;}
</style>
<title>programming</title>
<g class="st">
<path class="st0" d="M1432.5,211c-1.2,2.5-2.3,5-3.5,7.4c-1.8,3.8-3.6,7.5-5.3,11.1c-0.8,1.6-1.6,3.2-2.3,4.8
	c-8.6,17.6-16.6,33.1-23.5,45.9c-12.6,23.6-37.1,38.4-63.8,38.7l-151.6,1.7h-1.6l-13,0.1l-11.1,0.1l-34.1,0.4h-1.4l-17.4,0.2h-0.5
	l-107,1.2l-95.5,1l-11.1,0.1l-69,0.8h-0.1l-44.8,0.5h-0.5l-141.5,1.5l-42.3,0.5c-9,0.1-18-1.2-26.7-3.8c-15-4.5-28.6-13.1-39.1-24.8
	c-18.2-20-31.4-43.4-40.3-68.8c-1.3-3.7-2.5-7.4-3.6-11.1c-30.8-104.2,6.8-238.5,74.4-328.4c2.8-3.8,5.7-7.4,8.6-11l0.1-0.1
	c20.8-25.5,44.1-46.8,68.9-62c44-26.9,92.8-34.5,140.7-11.9c40.6,19.1,78.5,28.1,115.2,30.6c3.7,0.2,7.4,0.4,11.1,0.5
	c84.2,2.6,163.2-27.7,255.9-47.3c3.7-0.8,7.4-1.6,11.1-2.3c66.1-13.2,139.5-20.1,226.7-5.5c9.1,1.5,18,3.6,26.8,6.4
	c3.8,1.2,7.6,2.6,11.1,4c41.6,16.9,64.3,48.2,74,87.5c0.9,3.6,1.7,7.3,2.4,11.1C1526-15.7,1475.8,118.1,1432.5,211z"/>
<g class="st1">
	<path class="st2" d="M633.9-183.1v509.6l-42.3,0.5c-9,0.1-18-1.2-26.7-3.8v-444.3h0.1C585.8-146.6,609.1-167.9,633.9-183.1z"/>
	<path class="st2" d="M1508.9-110H556.3c2.8-3.8,5.7-7.4,8.6-11v-0.1h941.6C1507.4-117.5,1508.2-113.8,1508.9-110z"/>
	<path class="st2" d="M1432.5-208.6v427h-3.5c-1.8,3.8-3.6,7.5-5.3,11.1c-0.8,1.6-1.6,3.2-2.3,4.8v-446.9
		C1425.2-211.4,1428.9-210,1432.5-208.6z"/>
	<path class="st2" d="M1167.9-213.5v534.3l-11.1,0.1v-532.1C1160.4-212,1164.1-212.8,1167.9-213.5z"/>
	<path class="st2" d="M900.9-163.9v487.6l-11.1,0.1v-488.2C893.5-164.2,897.2-164.1,900.9-163.9z"/>
	<path class="st2" d="M1429,218.4c-1.8,3.8-3.6,7.5-5.3,11.1H485.5c-1.3-3.7-2.5-7.4-3.6-11.1H1429z"/>
</g>
<rect x="682.6" y="38.7" class="st3" width="19" height="57.7"/>
<rect x="1193.9" y="35.7" class="st3" width="19" height="61"/>
<polygon class="st4" points="1334.1,306.5 1334.1,319.5 1182.2,320.9 1180.6,320.9 1122.8,321.4 1121.4,321.5 1103.9,321.6 
	1103.4,321.6 996.4,322.6 820.8,324.2 820.6,324.2 776,324.7 775.5,324.7 577.1,326.5 577.1,311.5 623.8,283.5 717.3,282.7 
	719.3,282.7 720,282.7 722,282.7 767,282.3 769,282.3 769.6,282.3 771.6,282.3 786,282.1 786.4,282.1 821.9,281.8 822.2,281.8 
	1099.6,279.5 1106.4,279.4 1107.1,279.4 1112.3,279.4 1149.9,279.1 1151.9,279 1153.8,279 1154.7,279 1166.4,278.9 1168.8,278.9 
	1171.9,278.9 1181.6,278.8 1197.1,278.7 1199.1,278.6 1202.6,278.6 1203.2,278.6 1277.9,278 "/>
<polygon class="st5" points="1334.1,306.5 1334.1,319.5 1182.2,320.9 1180.6,320.9 1122.8,321.4 1121.4,321.5 1103.9,321.6 
	1103.4,321.6 996.4,322.6 820.8,324.2 820.6,324.2 776,324.7 775.5,324.7 577.1,326.5 577.1,311.5 623.8,283.5 717.3,282.7 
	719.3,282.7 720,282.7 722,282.7 767,282.3 769,282.3 769.6,282.3 771.6,282.3 786,282.1 786.4,282.1 821.9,281.8 822.2,281.8 
	1099.6,279.5 1106.4,279.4 1107.1,279.4 1112.3,279.4 1149.9,279.1 1151.9,279 1153.8,279 1154.7,279 1166.4,278.9 1168.8,278.9 
	1171.9,278.9 1181.6,278.8 1197.1,278.7 1199.1,278.6 1202.6,278.6 1203.2,278.6 1277.9,278 "/>
<path class="st3" d="M767.1,256.5V281c0,2.4-1.4,4.5-3.5,5.5c-0.8,0.4-1.6,0.6-2.5,0.6l-34.9,0.7c-0.9,0-1.9-0.2-2.7-0.6
	c-2.2-1-3.6-3.2-3.6-5.6v-25.2H767.1z"/>
<path class="st6" d="M767.1,256.5V281c0,2.4-1.4,4.5-3.5,5.5c-0.8,0.4-1.6,0.6-2.5,0.6l-34.9,0.7c-0.9,0-1.9-0.2-2.7-0.6
	c-2.2-1-3.6-3.2-3.6-5.6v-25.2H767.1z"/>
<path class="st3" d="M769.1,256.5V281c0,2.4-1.4,4.5-3.5,5.5c-0.8,0.4-1.6,0.6-2.5,0.6l-34.9,0.7c-0.9,0-1.9-0.2-2.7-0.6
	c-2.2-1-3.6-3.2-3.6-5.6v-25.2H769.1z"/>
<rect x="1151.9" y="256.5" class="st3" width="47.2" height="31.5"/>
<rect x="1151.9" y="256.5" class="st6" width="47.2" height="31.5"/>
<rect x="1149.9" y="256.5" class="st3" width="47.2" height="31.5"/>
<polygon class="st6" points="701.6,38.7 701.6,44.4 682.6,43.9 682.6,38.7 "/>
<path class="st4" d="M826.7-122.8l-22.8,164c-0.3,2.2-2.2,3.8-4.4,3.7l-182.8-4.7l-3.5-0.1c-2.4-0.1-4.3-2-4.2-4.4
	c0-0.2,0-0.3,0-0.5l25.6-171.7c0.3-2.2,2.3-3.8,4.5-3.6l183.5,12.4c2.4,0.1,4.2,2.2,4,4.5C826.7-123,826.7-122.9,826.7-122.8z"/>
<polygon class="st2" points="646.9,-128 627.6,23.3 795.6,28.7 816.3,-117.3 "/>
<path class="st4" d="M860.9-130.3h194c2.9,0,5.3,2.4,5.3,5.3V37.7c0,2.9-2.4,5.3-5.3,5.3h-194c-2.9,0-5.3-2.4-5.3-5.3V-125
	C855.6-128,858-130.3,860.9-130.3z"/>
<rect x="865.3" y="-118.7" class="st2" width="186" height="144.3"/>
<polygon class="st6" points="1212.9,35.7 1212.9,39.4 1193.9,39.8 1193.9,35.7 "/>
<path class="st4" d="M1298.7,32.5c0.1,1.7-1.2,3.2-2.9,3.3c0,0-0.1,0-0.1,0l-187.2,3.9c-1.6,0-3-1.2-3.1-2.8l-16.1-167.3
	c-0.2-1.7,1.1-3.2,2.8-3.4c0,0,0.1,0,0.1,0l185.8-9.2l2-0.1c1.7-0.1,3.1,1.2,3.2,2.8L1298.7,32.5z"/>
<polygon class="st2" points="1099.9,-124 1269.6,-132.3 1283.9,19.7 1115.6,23.7 "/>
<path class="st6" d="M1298.7,32.5c0.1,1.7-1.2,3.2-2.9,3.3c0,0-0.1,0-0.1,0l-17.7-178.8l2-0.1c1.7-0.1,3.1,1.2,3.2,2.8L1298.7,32.5z
	"/>
<path class="st6" d="M639.2-140.1L616.7,40.2l-3.5-0.1c-2.4-0.1-4.3-2-4.2-4.4c0-0.2,0-0.3,0-0.5l25.6-171.7
	C635-138.7,637-140.2,639.2-140.1z"/>
<rect x="682.6" y="79.2" class="st6" width="19" height="17.1"/>
<polygon class="st6" points="769.1,256.5 769.1,261.5 721.9,262.7 721.9,256.5 "/>
<path class="st4" d="M852.3,85.2v168.2c0,2.1-1.7,3.9-3.8,4l-191.7,5.1h0c-2.2,0-3.9-1.8-4-4V85.2c0-2.2,1.8-3.9,4-4h191.6
	C850.6,81.3,852.3,83,852.3,85.2z"/>
<path class="st6" d="M656.8,81.2v181.2h0c-2.2,0-3.9-1.8-4-4V85.2C652.9,83,654.6,81.3,656.8,81.2L656.8,81.2z"/>
<polygon class="st7" points="665.6,92 843.1,92 843.1,240.2 665.6,244.2 "/>
<rect x="1193.9" y="79.2" class="st6" width="19" height="17.4"/>
<polygon class="st6" points="1197.1,256.5 1197.1,262.9 1149.9,261.6 1149.9,256.5 "/>
<path class="st4" d="M1259.3,85.2v173.3c0,2.2-1.8,4-4,4l0,0l-191.7-5.1c-2.1-0.1-3.8-1.8-3.8-4V85.2c0-2.2,1.8-3.9,3.9-4h191.6
	C1257.5,81.2,1259.3,83,1259.3,85.2z"/>
<path class="st6" d="M1259.3,85.2v173.3c0,2.2-1.8,4-4,4l0,0V81.2l0,0C1257.5,81.2,1259.3,83,1259.3,85.2z"/>
<polygon class="st7" points="1246.6,92 1069.1,92 1069.1,240.2 1246.6,244.2 "/>
<path class="st4" d="M1054.8,85.2v168.2c0,2.1-1.7,3.9-3.8,4l-191.6,5.1l0,0c-2.2,0-4-1.8-4-4V85.2c0-2.2,1.8-3.9,4-4h191.6
	C1053.1,81.3,1054.8,83,1054.8,85.2z"/>
<polygon class="st7" points="868.1,92 1045.6,92 1045.6,240.2 868.1,244.2 "/>
<polygon class="st6" points="1334.1,306.5 1334.1,319.5 1182.2,320.9 1180.6,320.9 1122.8,321.4 1121.4,321.5 1103.9,321.6 
	1103.4,321.6 996.4,322.6 820.8,324.2 820.6,324.2 776,324.7 775.5,324.7 577.1,326.5 577.1,311.5 779.6,310.2 780.1,310.2 
	821.1,309.9 821.3,309.9 1104.3,308 1104.6,308 1104.8,308 1105.3,308 1110.1,308 1111.5,308 1186,307.5 1190.4,307.4 1191.4,307.4 
	"/>
<circle class="st8" cx="958.3" cy="45" r="51.3"/>
<linearGradient id="SVGID_1_" gradientUnits="userSpaceOnUse" x1="1068.7849" y1="-398.61" x2="1068.785" y2="-21.1534" gradientTransform="matrix(1 0 0 -1 -79.34 -73.25)">
	<stop  offset="0" style="stop-color:#808080;stop-opacity:0.25"/>
	<stop  offset="0.54" style="stop-color:#808080;stop-opacity:0.12"/>
	<stop  offset="1" style="stop-color:#808080;stop-opacity:0.1"/>
</linearGradient>
<path class="st9" d="M775.4,325c0-0.1,0.1-0.2,0.1-0.3c1-3.6,2.8-9.7,4.1-14.5c0.2-0.6,0.3-1.2,0.5-1.8c1.5-5.5,4.3-18.3,5.9-26.3
	c0.6-2.8,1-5,1.1-6.1c0.2-1.7,3.2-8.9,6.6-17.2c2.4-5.8,5-12.2,6.9-17.6c1.3-3.2,2.2-6.5,2.9-9.8c0.1-0.7,0.1-1.4,0-2.1
	c-0.3-1.1-0.5-2.3-0.5-3.5l0,0c-0.2-6.2,1.6-16,4.5-20.1c3.5-5,6-23.7,6-23.7s5.2,0.8,6-3.5c0.1-0.5,0.1-0.9,0.1-1.4
	c0-0.4,0-0.7-0.1-1.1c-0.9-6.2,14.7-12.9,23.5-14.3c1-0.2,2-0.3,3-0.3c2.1-0.2,4.2-0.7,6.3-1.4c0.9-0.3,1.9-0.6,3-1
	c3.7-1.2,8.1-2.9,12.8-4.7c17.6-6.8,38.8-16,38.8-16c0.2-0.7,0.3-1.4,0.5-2.1c2.1-8.6,8.2-15.6,16.3-18.9l0,0c0-0.7,0-1.3,0-2
	c0-3.5-0.2-7-0.3-10.5c0-0.7-0.1-1.4-0.1-2.1c0-0.2,0-0.4,0-0.6s0-0.4,0-0.5c0-0.7-0.1-1.4-0.1-2.1l-0.2-0.1
	c-1.5-1.2-2.9-2.6-3.9-4.2c-0.6-0.9-1.1-2-1.4-3c-1.3-3.4-1.5-7.2-2.4-10.8l-0.2-0.7c-1.1-3.6-2.4-7.1-4-10.6
	c-2.2-5.4-3.9-11-5.6-16.6c-1-3.4-2.1-6.8-3.1-10.3l-1.6-5.2c-0.3-1-0.6-2-0.8-3l0,0c-0.1-0.5-0.2-0.9-0.3-1.4l0,0
	c-0.3-1.5-0.2-3.1,0.2-4.6c0.4-1,0.8-2,1.3-3c0.2-0.4,0.4-0.9,0.5-1.4l0,0c0-0.1,0.1-0.2,0.1-0.3c0.1-0.4,0.1-0.7,0.1-1.1
	c0-1.3-0.2-2.6-0.5-3.9c0,0,0,0,0,0c0-0.1,0-0.2,0-0.3c-0.2-1-0.3-2-0.4-3c-0.4-5.4,0.9-10.8,3.5-15.6l0.2-0.4
	c0.6-1,1.2-1.9,1.8-2.8l0,0c0.3-0.4,0.6-0.8,1-1.2c-1.4,1.3-3.7,0.8-5-0.7c-0.2-0.2-0.4-0.5-0.6-0.8c-0.1-0.1-0.2-0.3-0.2-0.5
	c0-0.1-0.1-0.3-0.1-0.4c-0.7-2.5,0.5-5.1,2.1-7c1.6-1.9,3.5-3.5,5.7-4.7l0,0c0.1-0.1,0.3-0.1,0.4-0.2c0.8-0.4,1.7-0.8,2.6-1.1l0,0
	c0.5-0.2,1.1-0.3,1.6-0.4l-3.7-0.3l-1.5-0.1c1.5-6.1,6.8-10.5,13-10.9h1.1c0.5,0,1.1,0.1,1.6,0.1c-1.7-0.7-2.8-2.5-2.7-4.3
	c2.6,2,5.9,3.1,9.2,3.1h0.4c-0.2-1.1-0.3-2.2-0.3-3.3l0,0l0,0l0,0c-0.1-1.5-0.1-3,0-4.5c1.8,1.7,4.3,2.5,6.8,2.3l-2.1-2.9
	c1.9,1.5,4.2,2.2,6.6,2l0.5,0c0.4,0,0.8-0.1,1.2-0.2h0.1c-0.2-0.2-0.4-0.5-0.5-0.8l-0.1-0.1c-0.4-0.7-0.8-1.4-1-2.1
	c-0.1-0.3-0.2-0.6-0.2-0.9l0,0c-0.4-1.8-0.3-3.7,0.5-5.5c3.2,2.7,6.8,6.4,11,3.6s4.4-7.9,11-7.4c3.7,0.4,6.9,2.7,8.4,6.1
	c1.9-2.2,5-2.9,7.7-1.8c2.6,1.2,4.2,4,3.9,6.9c2.8-0.7,5.7-1.4,8.3-0.3c2.6,1,4.3,4.4,2.8,6.7c0,0.1-0.1,0.1-0.1,0.2
	c-1.2,1.6-3.9,2.5-3.7,4.5l0.4,0.3l1.3,0.9l0,0c5.1,3.7,10.1,7.5,14.9,11.6c2.5,2.1,5.1,4.6,5.3,7.8c0,0.8-0.1,1.6-0.2,2.4l0,0
	c-0.2,0.8-0.4,1.6-0.5,2.3c-0.4,2-0.5,4-0.3,6l0,0c0.1,0.6,0.2,1.2,0.3,1.8c1.5,7.7,7.7,14.1,8.3,22v0.6c0,0.8,0,1.7-0.1,2.5
	c-0.5,4.8-2.7,9.4-4.5,14c-0.1,0.3-0.2,0.6-0.3,0.8c-3.5,9-5.5,18.6-7,28.2c-0.5,3.4-1.2,6.8-2,10.1c-0.9,3.8-2.7,7.4-5.1,10.4
	c-1,1.2-2.1,2.2-3.4,3c-0.8,0.5-1.7,1-2.7,1.4c0,0,0,0,0,0.1c0.1,0.6,0.2,1.2,0.3,1.8c0.1,0.3,0.1,0.6,0.2,1l0,0c0,0,0,0,0,0.1
	c0.8,4.7,1.8,9.4,2.8,13.8l0.5,2.2c12.6,4.5,14.1,13.9,14.2,17.4c0,0.5,0,1,0,1.4c0,0,19,0.5,26.5,6c1.4,1,2.9,1.7,4.5,2.3
	c3,1.1,6.1,2.1,9.3,2.9c1.6,0.4,3.3,0.8,5,1.2c3,0.7,6.2,1.4,9.3,2c8.2,1.7,15.9,3,19.8,4c9.3,2.4,30.7,22.8,30.7,22.8
	s2.5,20.6,5,23.7s7,13.6,7,13.6l16.5,29.4l7,12.4h4.5c0.6,0,1.8,0.9,3.2,2.1c1.2,1.1,2.5,2.4,3.7,3.6l1.9,2l1.2,1.3
	c0,0,7.3,0.2,9.2,5.9c5.9-0.2,13.2,0.2,18.3,2.5c0.7,0.3,1.4,0.7,2,1.1c2.1,1.2,3.6,3.3,4.1,5.7c0.1,0.5,0.2,1,0.2,1.4
	c0,0.6,0,1.1,0,1.7c-0.4,7.6-5.3,13.9-9.8,18.1l0.3,0.6c0,0-0.2,0.4-0.4,1c-0.1,0.2-0.2,0.4-0.3,0.6l0,0c-0.6,1.3-1.5,3.2-2.8,5.4
	c-2.6,4.8-5.8,9.2-9.6,13.2l-0.3,0.3l-57.7,0.5l-0.2-0.2l-11.2-13.4l-5.6-6.6l-0.2-0.2l-0.2,1.6l-0.5,5.3l-1.3,12.8l-0.1,0.6v0.2
	l-0.2,1.5l0.1-1.5h-0.3l-107,1l-175.6,1.9v0.8h-0.1v-0.8l-44.8,0.5L775.4,325z"/>
<path class="st8" d="M1009.6,150c0,0-99.5,12-90,0c3.4-4.3,4.4-17.2,4.2-31.8c-0.1-4.5-0.2-9.1-0.5-13.6c-1.1-22-3.8-43.5-3.8-43.5
	s87-41,77-8.5c-4,13.1-2.7,31.6,0.3,48.9c0.9,5,1.9,10,3,14.7C1002.6,127.5,1005.8,138.9,1009.6,150z"/>
<path class="st6" d="M1009.6,150c0,0-99.5,12-90,0c3.4-4.3,4.4-17.2,4.2-31.8c15.2-6.5,34.5-1.7,34.5-1.7c20.3-4,33.3-3.3,41.7-0.4
	C1002.6,127.5,1005.8,138.9,1009.6,150z"/>
<path class="st2" d="M820.7,325.4v-0.8l175.6-1.9l107-1h0.3l-0.1,1.5l0.2-1.5h0.2v-0.2l1.4-13.5l0.5-5.1l0.2-1.6l0.1-1.3l6.2-20.6
	l6.2-20.6l5.2-17.3l7.9-26.5c0,0-4.5-10.5-7-13.5s-5-23.5-5-23.5s-21.3-20.3-30.7-22.7c-3.9-1-11.6-2.3-19.8-4
	c-3.1-0.6-6.2-1.3-9.3-2c-1.7-0.4-3.4-0.8-5-1.2c-3.1-0.8-6.2-1.7-9.3-2.9c-1.6-0.6-3.1-1.3-4.5-2.3c-7.3-5.4-25.8-6-26.5-6l0,0
	c0,0,0,0,0-0.1v-0.1c0-0.4,0-0.8,0-1.3c0-0.4,0-0.9-0.1-1.4c0-0.2,0-0.3-0.1-0.5c-0.1-0.4-0.1-0.7-0.2-1.1c0-0.2-0.1-0.4-0.1-0.5
	c-0.3-1.2-0.7-2.4-1.3-3.5c-0.1-0.2-0.2-0.3-0.2-0.5c-0.5-0.9-1.1-1.8-1.7-2.6c-0.1-0.2-0.3-0.3-0.4-0.5c-0.8-1-1.7-1.9-2.7-2.6
	c-0.3-0.2-0.5-0.4-0.8-0.6c-0.2-0.1-0.3-0.3-0.5-0.4l-0.9-0.6l-0.8-0.5c-0.7-0.4-1.5-0.8-2.3-1.2c-0.3-0.1-0.5-0.2-0.8-0.3
	s-0.7-0.3-1.1-0.4h-0.1l-0.7-0.3c-0.6-0.2-1.2-0.4-1.8-0.5l-0.9-0.2l-1-0.2l-1-0.2c-1-0.2-2.1-0.4-3.2-0.5l-1.1-0.1l-1.2-0.1
	l-1.2-0.1l-1.7-0.1l-2-0.1c-8.8,0-17.6,0.9-26.2,2.8c-6-1.3-12.1-1.9-18.3-1.7h-0.9l-1,0.1h-0.6l-1.3,0.1c-0.4,0-0.9,0.1-1.3,0.2
	c-0.4,0.1-0.9,0.1-1.3,0.2l-0.7,0.1c-0.7,0.1-1.3,0.2-2,0.4c-0.2,0-0.4,0.1-0.7,0.2c-0.9,0.2-1.7,0.4-2.6,0.7
	c-0.4,0.1-0.9,0.3-1.3,0.4c-0.2,0.1-0.4,0.1-0.6,0.2l-0.6,0.2l-0.6,0.3l-0.8,0.3c-0.4,0.2-0.8,0.3-1.1,0.5c-0.2,0.1-0.4,0.2-0.6,0.3
	c-0.2,0.1-0.4,0.2-0.6,0.3c-2.3,1.2-4.4,2.6-6.2,4.4l-0.5,0.5l-0.5,0.5c-0.2,0.2-0.3,0.3-0.5,0.5c-0.7,0.7-1.3,1.5-1.8,2.3
	c-0.2,0.2-0.3,0.4-0.5,0.6c-0.6,0.9-1.2,1.9-1.7,2.9c-0.1,0.2-0.3,0.5-0.4,0.7c-0.8,1.7-1.5,3.4-2,5.3c-0.2,0.7-0.4,1.3-0.5,2
	c-0.2,1-21.2,9.3-38.7,16.1c-4.7,1.8-9.1,3.4-12.8,4.7c-1.1,0.4-2.1,0.7-3,1c-2,0.7-4.1,1.2-6.3,1.4c-1,0-2,0.1-3,0.3
	c-8.1,1.3-21.9,7-23.4,12.7c-0.1,0.5-0.2,0.9-0.1,1.4c0,0,0,0.1,0,0.1c1,7-6,6-6,6s-2.5,18.5-6,23.5c-2.5,3.6-4.3,11.6-4.5,17.7l0,0
	c-0.1,1.9,0,3.8,0.4,5.6c0,0,0,0.1,0,0.1c0.4,1.3-0.6,5-2.2,9.7c-1.8,5.2-4.3,11.5-6.8,17.6c-3.7,9.1-7.3,17.4-7.5,19.2
	c-0.1,0.8-0.4,2.3-0.7,4.1c-1.5,7.6-4.7,22.1-6.3,28c-1.2,4.4-2.9,10.4-4.1,14.5c0,0.1-0.1,0.2-0.1,0.3l44.8-0.4L820.7,325.4
	L820.7,325.4L820.7,325.4z"/>
<path class="st6" d="M837.1,207.5c0,0,57,29.5,77.5,26L837.1,207.5z"/>
<path class="st6" d="M953.1,195.5c0,0,55.5,18,74,20.5S953.1,195.5,953.1,195.5z"/>
<path class="st6" d="M1014.7,137.6c-29,5.3-83.6,4.2-107.2,3.4c8.7-31,50.8-20.5,50.8-20.5C1010.5,110.1,1014.5,131.7,1014.7,137.6z
	"/>
<path class="st2" d="M1014.7,135.6c-29,5.3-83.6,4.2-107.2,3.4c8.7-31,50.8-20.5,50.8-20.5C1010.5,108.1,1014.5,129.7,1014.7,135.6z
	"/>
<path class="st8" d="M1168.6,272.2c0,0,34.2-5.3,34.8,9.8s-17.4,25.5-17.4,25.5L1168.6,272.2z"/>
<path class="st6" d="M996.9,101.4c-1.5,0.7-3,1.2-4.5,1.7c-10.8,3.7-21.7,7.5-33,8.8c-11.3,1.4-23.3,0.2-33.2-5.5c-1-0.6-2-1.2-3-2
	c-1.1-22-3.8-43.5-3.8-43.5s87-41,77-8.5C992.6,65.6,993.9,84.1,996.9,101.4z"/>
<path class="st3" d="M944.2-35.2c-2.9,0.8-6,0.1-8.3-1.8l2.1,2.9c-2.5,0.3-5-0.5-6.8-2.3c-0.2,2.6-0.1,5.2,0.3,7.8
	c-3.4,0.2-6.8-0.9-9.6-3c-0.1,1.8,0.9,3.6,2.6,4.3c-7.2-0.9-13.8,3.7-15.6,10.7l5.2,0.5c-4.1,0.9-7.8,3.1-10.4,6.4
	c-1.6,2-2.8,4.6-2.1,7c0.7,2.4,4.1,4,5.9,2.3c-5.3,6.3-7.5,14.7-6.1,22.8c0.5,1.7,0.6,3.5,0.5,5.3c-0.3,1.6-1.4,3.1-1.9,4.7
	c-1,2.9-0.1,6.1,0.8,9l4.7,15.4c1.7,5.6,3.4,11.1,5.6,16.5c1.6,3.4,2.9,6.9,4,10.5c1.3,4.8,1.3,10.1,4,14.4c1.8,2.7,4.3,4.8,7.2,6.3
	c9.9,5.7,21.8,6.9,33.2,5.5s22.2-5.1,33-8.8c2.4-0.7,4.7-1.7,6.8-3c7.5-4.9,9.1-14.9,10.5-23.6c1.6-9.8,3.6-19.6,7.3-28.8
	c2.2-5.5,5-11.1,4.5-16.9c-0.6-7.8-6.8-14.1-8.3-21.8c-0.5-2.6-0.5-5.2,0.1-7.8c0.5-1.5,0.7-3.1,0.8-4.7c-0.2-3.2-2.8-5.7-5.3-7.8
	c-5.4-4.5-10.9-8.7-16.7-12.7c-0.3-2,2.4-2.9,3.7-4.4c1.7-2.2-0.1-5.8-2.7-6.8s-5.6-0.4-8.3,0.3c0.5-3.6-2.1-6.9-5.7-7.4
	c-2.2-0.3-4.4,0.6-5.8,2.3c-1.5-3.4-4.7-5.7-8.4-6.1c-6.6-0.5-6.8,4.5-11,7.3s-7.7-0.9-11-3.6C941.6-41.3,942.1-37.8,944.2-35.2z"/>
<path class="st2" d="M1193.9,302.2c0,0-0.9,2.1-2.5,5.2c-2.5,4.7-5.5,9.1-9,13.2l-0.3,0.3h-1.6l-57.7,0.5h-1.4l-0.2-0.2l-11.2-13.3
	l-4.2-5l-0.2-0.2l-0.4-0.4l-0.2-0.2l-0.3-0.3l-8.2-9.7l3-12.5l5.1-21.1l0.1-0.5l1-4l0.7-3l2.4-9.8l8.2-33.7l14.5,7.5l15.3,27
	l8.2,14.5h4.5c0.8,0,2.8,1.6,4.8,3.5c0.7,0.7,1.4,1.4,2,2c1.8,1.8,3.2,3.4,3.2,3.4s7.3,0.2,9.3,5.9c0.1,0.3,0.2,0.6,0.3,0.8
	c0.7,2.3,1.5,4.5,2.5,6.6c1.3,2.8,2.9,6,4.5,9.2c3.1,5.8,6.2,11.4,7.3,13.4l0.1,0.3L1193.9,302.2z"/>
<path class="st6" d="M1108,257.1l-0.1,1.4v0.1l-0.2,2.3l-1.3,18.5l-1.6,22.3l-0.5,6.3l-1,13.4v0.2l-107,1l-175.6,1.9v0.8h-0.1v-0.8
	v-0.3l0.4-14.4l0.9-28.1l0.7-23.8l0.1-2.4c0.2-5.8,5-10.4,10.8-10.2c0.2,0,0.4,0,0.6,0c4.7,0.4,10.9,0.9,18.2,1.4l3,0.2
	c42.3,2.9,120.6,6.7,199.5,2c1.7-0.1,3.3-0.2,5-0.3c12.2-0.8,24.5-1.8,36.6-3c5.8-0.6,11,3.6,11.6,9.4
	C1108.1,255.8,1108.1,256.4,1108,257.1L1108,257.1z"/>
<path class="st3" d="M820.7,325.4v-0.8l175.6-1.9l107-1h0.3v-0.2l1-13.4l0.4-6l1.6-22.6l1.3-17.9v-0.4c0.1-0.8,0-1.7-0.1-2.5
	c0,0,0-0.1,0-0.1c-0.3-1.7-1-3.3-2-4.6c-2.2-2.9-5.8-4.4-9.4-4c-12.1,1.2-24.3,2.2-36.6,3c-1.7,0.1-3.3,0.2-5,0.3
	c-78.9,4.7-157.2,0.9-199.5-2l-3-0.2c-7.3-0.5-13.5-1-18.2-1.4c-5.4-0.5-10.2,3.2-11.2,8.5c-0.1,0.5-0.2,1.1-0.2,1.6l-0.7,22.2
	l-0.9,28.1l-0.4,14.4v0.3L820.7,325.4L820.7,325.4z"/>
<path class="st6" d="M1108.3,264.1l-1.2,15.3l-1.8,22.8l-0.5,5.7l-1,12.8l-0.1,0.6v0.2l0,0l-0.2,1.5l0.1-1.5h-0.3l-107,1l-175.6,1.9
	v-0.3l0.5-14.4l1-28.1l0.6-18.7c0.1-2.2,1.2-4.1,3.1-5.2c1.1-0.7,2.5-1,3.8-0.9c2.1,0.2,4.7,0.4,7.7,0.6c4.9,0.4,10.9,0.8,17.9,1.2
	c13,0.8,29.3,1.7,48,2.4c52,2,122.2,2.7,188.9-3.2c3-0.3,6.1-0.5,9.1-0.8c1.2-0.1,2.4,0.1,3.5,0.7c0.3,0.2,0.6,0.3,0.9,0.5
	c0.9,0.6,1.6,1.5,2,2.5c0.1,0.2,0.2,0.4,0.3,0.6C1108.3,262.3,1108.4,263.2,1108.3,264.1z"/>
<path class="st6" d="M769.1,277.8v3.2c0,2.4-1.4,4.5-3.5,5.5l-40.1,0.8c-2.2-1-3.6-3.2-3.6-5.6v-3L769.1,277.8z"/>
<polygon class="st3" points="769.6,288.4 717.3,289.4 717.3,280.7 769.6,279.7 "/>
<polygon class="st6" points="769.6,288.4 717.3,289.4 717.3,280.7 769.6,279.7 "/>
<polygon class="st3" points="771.6,288.4 719.3,289.4 719.3,280.7 771.6,279.7 "/>
<g class="st1">
	<path d="M944.6-38.5c-1-1.3-1.6-2.8-1.9-4.3c-0.2,1.5-0.1,3.1,0.4,4.6C943.6-38.3,944.1-38.4,944.6-38.5z"/>
	<path d="M931.9-31.9c-0.2-1.2-0.3-2.5-0.4-3.7c0,1.2,0,2.5,0,3.7L931.9-31.9z"/>
	<path d="M1013.4,1.5c0.1-0.9,0.2-1.8,0.4-2.6c0.5-1.5,0.7-3.1,0.8-4.7c0-0.4-0.1-0.7-0.2-1.1c-0.2,0.9-0.4,1.8-0.6,2.8
		C1013.4-2.3,1013.2-0.4,1013.4,1.5z"/>
	<path d="M992.6-29.4l1.1,0.8c0.9-0.7,1.8-1.4,2.6-2.2c0.8-1.1,0.9-2.4,0.4-3.6c-0.1,0.2-0.2,0.4-0.4,0.6
		C995-32.3,992.3-31.4,992.6-29.4z"/>
	<path d="M910.4-19.8c-0.4,0.7-0.7,1.5-0.9,2.3c1.6-0.9,3.2-1.5,5-1.9L910.4-19.8z"/>
	<path d="M924.2-30.7c-0.7-0.4-1.3-0.8-1.9-1.2c0,0.4,0,0.8,0.1,1.2C923-30.7,923.6-30.7,924.2-30.7z"/>
	<path d="M1022,28.3c-0.4,4.9-2.7,9.5-4.5,14.1c-3.7,9.2-5.7,19-7.3,28.8c-1.4,8.8-3,18.8-10.5,23.6c-2.1,1.3-4.4,2.3-6.8,3
		c-10.8,3.7-21.7,7.5-33,8.8s-23.3,0.2-33.2-5.5c-2.9-1.5-5.3-3.7-7.2-6.3c-2.7-4.2-2.7-9.5-4-14.4c-1.1-3.6-2.4-7.1-4-10.5
		c-2.2-5.4-3.9-11-5.6-16.5c-1.6-5.1-3.1-10.3-4.7-15.4c-0.5-1.5-0.9-3.1-1.1-4.8c-0.4,2.6,0.4,5.2,1.1,7.8
		c1.6,5.2,3.1,10.3,4.7,15.4c1.7,5.6,3.4,11.1,5.6,16.5c1.6,3.4,2.9,6.9,4,10.5c1.3,4.8,1.3,10.1,4,14.4c1.8,2.7,4.3,4.8,7.2,6.3
		c9.9,5.7,21.8,6.9,33.2,5.5s22.2-5.1,33-8.8c2.4-0.7,4.7-1.7,6.8-3c7.4-4.9,9.1-14.9,10.5-23.6c1.5-9.8,3.6-19.6,7.3-28.8
		c2.2-5.5,5-11,4.5-16.9C1022,28.4,1022,28.3,1022,28.3z"/>
	<path d="M902.3,24.4c0,0,0-0.1,0-0.1c0.2-1.8,0-3.5-0.5-5.3c-0.2-1.1-0.3-2.2-0.4-3.3c-0.1,2.1,0,4.2,0.4,6.3
		C902,22.8,902.2,23.6,902.3,24.4z"/>
	<path d="M905.3-0.1c0.8-1.3,1.6-2.5,2.6-3.7C906.1-2,902.7-3.6,902-6c-0.3,1-0.3,2,0,3C902.5-1.5,903.8-0.4,905.3-0.1z"/>
</g>
<path class="st6" d="M1155.1,256.5c0,0,3.2,11.5,0,21.5C1151.9,288,1155.1,256.5,1155.1,256.5z"/>
<path class="st6" d="M1168.6,268.2c0,0,1.3,14.6-1.7,17.2S1168.6,268.2,1168.6,268.2z"/>
<line class="st10" x1="692.7" y1="122.5" x2="794.3" y2="121.5"/>
<line class="st10" x1="692.7" y1="135" x2="794.3" y2="134"/>
<line class="st10" x1="692.7" y1="147.5" x2="794.3" y2="146.5"/>
<line class="st10" x1="1099.1" y1="122" x2="1200.7" y2="121"/>
<line class="st10" x1="1099.1" y1="134.5" x2="1200.7" y2="133.5"/>
<line class="st10" x1="1099.1" y1="147" x2="1200.7" y2="146"/>
<line class="st11" x1="657.6" y1="-99.7" x2="759.1" y2="-94.7"/>
<line class="st11" x1="656.9" y1="-87.3" x2="758.4" y2="-82.3"/>
<line class="st11" x1="656.2" y1="-74.8" x2="757.7" y2="-69.8"/>
<line class="st11" x1="651.6" y1="-49.4" x2="753.1" y2="-44.4"/>
<line class="st11" x1="650.9" y1="-37" x2="752.3" y2="-32"/>
<line class="st11" x1="650.1" y1="-24.5" x2="751.6" y2="-19.5"/>
<line class="st12" x1="890.2" y1="-95.6" x2="1029.7" y2="-94"/>
<line class="st12" x1="889.9" y1="-83.1" x2="1029.5" y2="-81.5"/>
<line class="st12" x1="889.7" y1="-70.7" x2="1029.2" y2="-69"/>
<line class="st11" x1="1134.5" y1="-97.2" x2="1236" y2="-102.2"/>
<line class="st11" x1="1135.3" y1="-84.8" x2="1236.8" y2="-89.8"/>
<line class="st11" x1="1136" y1="-72.3" x2="1237.5" y2="-77.3"/>
<line class="st11" x1="1134.5" y1="-97.2" x2="1236" y2="-102.2"/>
<line class="st11" x1="1135.3" y1="-84.8" x2="1236.8" y2="-89.8"/>
<line class="st11" x1="1136" y1="-72.3" x2="1237.5" y2="-77.3"/>
<line class="st11" x1="1140.4" y1="-56.5" x2="1241.9" y2="-61.5"/>
<line class="st11" x1="1141.2" y1="-44" x2="1242.7" y2="-49"/>
<line class="st11" x1="1141.9" y1="-31.6" x2="1243.4" y2="-36.6"/>
</g>
</svg>
